<?xml version="1.0" encoding="UTF-8"?>
<!-- Generated by jsxcad -->
<!DOCTYPE svg PUBLIC "-//W3C//DTD SVG 1.1 Tiny//EN" "http://www.w3.org/Graphics/SVG/1.1/DTD/svg11-tiny.dtd">
<svg viewBox="-250 -250 500 500" width="500" height="500" xmlns="http://www.w3.org/2000/svg"><path d="M-139.2107004477227,-7.45843750890193L-140.08074091250722,106.58815820366587L-123.38791105864027,-30.178978864915436zM-123.38791105864027,-30.178978864915436L-122.01179735456336,123.31812509908059L-103.72020499164879,-51.24997065622868zM-150.5415779188433,16.315471552088415L-151.86826917529243,86.52572057266319L-139.2107004477227,-7.45843750890193zM-103.72020499164879,-51.24997065622868L-98.01750844737792,135.71554129540385L-80.87052701259644,-70.15707151470046zM-80.87052701259644,-70.15707151470046L-68.84575969309283,142.89237530124183L-55.51018059601586,-86.45285560091257zM-157.35204612316,64.15347266085999L-150.5415779188433,16.315471552088415L-156.76921916754227,40.45117444831154zM-55.51018059601586,-86.45285560091257L-35.65848584770362,144.17778958595687L-28.320345636009904,-99.74331188292338zM-28.320345636009904,-99.74331188292338L3.915684056444264e-14,139.22233158266627L-1.3068835961730055e-14,-109.6779533927698zM-150.5415779188433,16.315471552088415L-157.35204612316,64.15347266085999L-151.86826917529243,86.52572057266319zM-1.3068835961730055e-14,-109.6779533927698L36.29821959430924,128.0787168624934L28.72238641821815,-115.94508141089418zM28.72238641821815,-115.94508141089418L71.27092184575572,111.2368340545363L57.07613238046202,-118.27353789759536zM-139.2107004477227,-7.45843750890193L-151.86826917529243,86.52572057266319L-140.08074091250722,106.58815820366587zM57.07613238046202,-118.27353789759536L103.00778862316287,89.59843305489801L84.23755909249466,-116.44212789795476zM-123.38791105864027,-30.178978864915436L-140.08074091250722,106.58815820366587L-122.01179735456336,123.31812509908059zM84.23755909249466,-116.44212789795476L129.8419069766818,64.39165183219174L109.32464975649236,-110.29770469430625zM109.32464975649236,-110.29770469430625L150.5007541955863,37.041552536784984L131.40144182228812,-99.7822217476765zM-103.72020499164879,-51.24997065622868L-122.01179735456336,123.31812509908059L-98.01750844737792,135.71554129540385zM131.40144182228812,-99.7822217476765L164.1928582447513,9.023849013890082L149.49692548004208,-84.96802762836418zM149.49692548004208,-84.96802762836418L170.6216410816997,-18.269564077939968L162.6431983498186,-66.09894394200208zM-80.87052701259644,-70.15707151470046L-98.01750844737792,135.71554129540385L-68.84575969309283,142.89237530124183zM-55.51018059601586,-86.45285560091257L-68.84575969309283,142.89237530124183L-35.65848584770362,144.17778958595687zM162.6431983498186,-66.09894394200208L170.6216410816997,-18.269564077939968L169.93658412097147,-43.63173941648777zM-28.320345636009904,-99.74331188292338L-35.65848584770362,144.17778958595687L3.915684056444264e-14,139.22233158266627zM149.49692548004208,-84.96802762836418L164.1928582447513,9.023849013890082L170.6216410816997,-18.269564077939968zM131.40144182228812,-99.7822217476765L150.5007541955863,37.041552536784984L164.1928582447513,9.023849013890082zM-1.3068835961730055e-14,-109.6779533927698L3.915684056444264e-14,139.22233158266627L36.29821959430924,128.0787168624934zM109.32464975649236,-110.29770469430625L129.8419069766818,64.39165183219174L150.5007541955863,37.041552536784984zM28.72238641821815,-115.94508141089418L36.29821959430924,128.0787168624934L71.27092184575572,111.2368340545363zM84.23755909249466,-116.44212789795476L103.00778862316287,89.59843305489801L129.8419069766818,64.39165183219174zM57.07613238046202,-118.27353789759536L71.27092184575572,111.2368340545363L103.00778862316287,89.59843305489801z" style="fill:rgb(83,212,212)"/></svg>
