<?xml version="1.0" encoding="UTF-8"?>
<!-- Generated by jsxcad -->
<!DOCTYPE svg PUBLIC "-//W3C//DTD SVG 1.1 Tiny//EN" "http://www.w3.org/Graphics/SVG/1.1/DTD/svg11-tiny.dtd">
<svg viewBox="-250 -250 500 500" width="500" height="500" xmlns="http://www.w3.org/2000/svg"><path d="M-146.19067785725653,-18.301467336047548L-147.90455822594254,95.76958533730387L-130.10000131009664,-41.087295800767876zM-130.10000131009664,-41.087295800767876L-129.81298524213423,112.4329664099379L-110.15609432152768,-62.242932842827805zM-157.7724438094904,5.518454635143041L-159.6329226204511,75.74647665359713L-146.19067785725653,-18.301467336047548zM-110.15609432152768,-62.242932842827805L-105.70516286974815,124.7332085661658L-87.02873208835148,-81.25403460195542zM-87.02873208835148,-81.25403460195542L-76.32600099663946,131.77974490780008L-61.39442280236037,-97.6727971845597zM-164.9886423349912,53.3894697845949L-157.7724438094904,5.518454635143041L-164.2231971411924,29.68073670998653zM-61.39442280236037,-97.6727971845597L-42.84280373102007,132.90139749730093L-33.93844170074401,-111.10415875033014zM-33.93844170074401,-111.10415875033014L-6.8145432376692225,127.75183073107662L-5.363170900526317,-121.19566137668188zM-157.7724438094904,5.518454635143041L-164.9886423349912,53.3894697845949L-159.6329226204511,75.74647665359713zM-5.363170900526317,-121.19566137668188L29.904020145163262,116.39144027894586L23.599705890668158,-127.63244088094022zM23.599705890668158,-127.63244088094022L65.31831504566311,99.32232396828934L52.1759976119524,-130.13876416191712zM-146.19067785725653,-18.301467336047548L-159.6329226204511,75.74647665359713L-147.90455822594254,95.76958533730387zM52.1759976119524,-130.13876416191712L97.48669331651145,77.4618758456241L79.53774307326651,-128.48737208265092zM-130.10000131009664,-41.087295800767876L-147.90455822594254,95.76958533730387L-129.81298524213423,112.4329664099379zM79.53774307326651,-128.48737208265092L97.48669331651145,77.4618758456241L104.79747781224867,-122.51739525711102zM104.79747781224867,-122.51739525711102L145.70336447828885,24.54286447998826L127.01230678813083,-112.16162713146714z" style="fill:rgb(83,212,212)"/><path d="M158.39089548673496,-78.71229792889173L174.11281077647152,-31.253591523246076L166.80081664448346,-53.7664712601548z" style="fill:rgb(246,167,149)"/><path d="M-110.15609432152768,-62.242932842827805L-129.81298524213423,112.4329664099379L-105.70516286974815,124.7332085661658zM127.01230678813083,-112.16162713146714L159.65082264160014,-3.5874740607512776L145.20268169421365,-97.4821889244413zM145.20268169421365,-97.4821889244413L166.25361541416052,-30.93735332588092L158.39089548673496,-78.71229792889173z" style="fill:rgb(83,212,212)"/><path d="M-114.39127324783007,133.95117709777352L-147.90455822594254,95.76958533730387L-132.43389551426986,117.16201653775381z" style="fill:rgb(34,46,160)"/><path d="M174.11281077647152,-31.253591523246076L158.39089548673496,-78.71229792889173L165.66286599952008,-56.29886565199222z" style="fill:rgb(246,167,149)"/><path d="M-87.02873208835148,-81.25403460195542L-105.70516286974815,124.7332085661658L-76.32600099663946,131.77974490780008zM-61.39442280236037,-97.6727971845597L-76.32600099663946,131.77974490780008L-42.84280373102007,132.90139749730093z" style="fill:rgb(83,212,212)"/><path d="M-147.90455822594254,95.76958533730387L-114.39127324783007,133.95117709777352L-129.81298524213423,112.4329664099379z" style="fill:rgb(34,46,160)"/><path d="M158.39089548673496,-78.71229792889173L166.25361541416052,-30.93735332588092L165.66286599952008,-56.29886565199222z" style="fill:rgb(83,212,212)"/><path d="M166.25361541416052,-30.93735332588092L174.11281077647152,-31.253591523246076L165.66286599952008,-56.29886565199222zM174.11281077647152,-31.253591523246076L166.25361541416052,-30.93735332588092L174.88769084606886,-5.897538481070326z" style="fill:rgb(246,149,167)"/><path d="M-33.93844170074401,-111.10415875033014L-42.84280373102007,132.90139749730093L-6.8145432376692225,127.75183073107662z" style="fill:rgb(83,212,212)"/><path d="M-90.5118547600564,146.43787463878894L-129.81298524213423,112.4329664099379L-114.39127324783007,133.95117709777352z" style="fill:rgb(51,38,177)"/><path d="M145.20268169421365,-97.4821889244413L159.65082264160014,-3.5874740607512776L166.25361541416052,-30.93735332588092zM127.01230678813083,-112.16162713146714L145.70336447828885,24.54286447998826L159.65082264160014,-3.5874740607512776zM-5.363170900526317,-121.19566137668188L-6.8145432376692225,127.75183073107662L29.904020145163262,116.39144027894586zM104.79747781224867,-122.51739525711102L124.71341307248916,52.05516729487877L145.70336447828885,24.54286447998826zM23.599705890668158,-127.63244088094022L29.904020145163262,116.39144027894586L65.31831504566311,99.32232396828934zM52.1759976119524,-130.13876416191712L65.31831504566311,99.32232396828934L97.48669331651145,77.4618758456241z" style="fill:rgb(83,212,212)"/><path d="M174.88769084606886,-5.897538481070326L159.65082264160014,-3.5874740607512776L168.6265769117172,21.33444171014377z" style="fill:rgb(242,130,183)"/><path d="M-129.81298524213423,112.4329664099379L-90.5118547600564,146.43787463878894L-105.70516286974815,124.7332085661658z" style="fill:rgb(51,38,177)"/><path d="M159.65082264160014,-3.5874740607512776L174.88769084606886,-5.897538481070326L166.25361541416052,-30.93735332588092z" style="fill:rgb(242,130,183)"/><path d="M104.79747781224867,-122.51739525711102L97.48669331651145,77.4618758456241L124.71341307248916,52.05516729487877z" style="fill:rgb(83,212,212)"/><path d="M-76.32600099663946,131.77974490780008L-90.5118547600564,146.43787463878894L-61.54605877998891,153.73678620781243zM-90.5118547600564,146.43787463878894L-76.32600099663946,131.77974490780008L-105.70516286974815,124.7332085661658z" style="fill:rgb(71,33,192)"/><path d="M168.6265769117172,21.33444171014377L145.70336447828885,24.54286447998826L155.1816594618459,49.236754585385036zM145.70336447828885,24.54286447998826L168.6265769117172,21.33444171014377L159.65082264160014,-3.5874740607512776z" style="fill:rgb(233,112,197)"/><path d="M-42.84280373102007,132.90139749730093L-61.54605877998891,153.73678620781243L-28.650302843224388,155.17773927179016zM-61.54605877998891,153.73678620781243L-42.84280373102007,132.90139749730093L-76.32600099663946,131.77974490780008z" style="fill:rgb(92,32,204)"/><path d="M155.1816594618459,49.236754585385036L124.71341307248916,52.05516729487877L134.84407973342152,76.42430979573699zM124.71341307248916,52.05516729487877L155.1816594618459,49.236754585385036L145.70336447828885,24.54286447998826z" style="fill:rgb(220,94,208)"/><path d="M-6.8145432376692225,127.75183073107662L-28.650302843224388,155.17773927179016L6.645581197945942,150.40842904096323z" style="fill:rgb(115,34,214)"/><path d="M134.84407973342152,76.42430979573699L97.48669331651145,77.4618758456241L108.39160354389878,101.43322211028664z" style="fill:rgb(203,77,216)"/><path d="M-28.650302843224388,155.17773927179016L-6.8145432376692225,127.75183073107662L-42.84280373102007,132.90139749730093z" style="fill:rgb(115,34,214)"/><path d="M29.904020145163262,116.39144027894586L6.645581197945942,150.40842904096323L42.53288163090718,139.4743820062557z" style="fill:rgb(139,40,220)"/><path d="M97.48669331651145,77.4618758456241L77.07486664688693,122.85378095005204L108.39160354389878,101.43322211028664z" style="fill:rgb(183,62,221)"/><path d="M97.48669331651145,77.4618758456241L134.84407973342152,76.42430979573699L124.71341307248916,52.05516729487877z" style="fill:rgb(203,77,216)"/><path d="M65.31831504566311,99.32232396828934L42.53288163090718,139.4743820062557L77.07486664688693,122.85378095005204z" style="fill:rgb(162,50,222)"/><path d="M6.645581197945942,150.40842904096323L29.904020145163262,116.39144027894586L-6.8145432376692225,127.75183073107662z" style="fill:rgb(139,40,220)"/><path d="M77.07486664688693,122.85378095005204L97.48669331651145,77.4618758456241L65.31831504566311,99.32232396828934z" style="fill:rgb(183,62,221)"/><path d="M42.53288163090718,139.4743820062557L65.31831504566311,99.32232396828934L29.904020145163262,116.39144027894586z" style="fill:rgb(162,50,222)"/></svg>
